<mxfile host="drawio-plugin" modified="2023-03-10T09:48:47.837Z" agent="5.0 (Windows NT 6.2; Win64; x64) AppleWebKit/537.36 (KHTML, like Gecko) Chrome/104.0.5112.102 Safari/537.36" etag="tvKfjYog6Dw8xcHZXkeo" version="20.5.3" type="embed"><diagram id="C5RBs43oDa-KdzZeNtuy" name="Page-1"><mxGraphModel dx="515" dy="349" grid="1" gridSize="10" guides="1" tooltips="1" connect="1" arrows="1" fold="1" page="1" pageScale="1" pageWidth="827" pageHeight="1169" math="0" shadow="0"><root><mxCell id="WIyWlLk6GJQsqaUBKTNV-0"/><mxCell id="WIyWlLk6GJQsqaUBKTNV-1" parent="WIyWlLk6GJQsqaUBKTNV-0"/><mxCell id="zkfFHV4jXpPFQw0GAbJ--17" value="CombinedProdukt" style="swimlane;fontStyle=0;align=center;verticalAlign=top;childLayout=stackLayout;horizontal=1;startSize=26;horizontalStack=0;resizeParent=1;resizeLast=0;collapsible=1;marginBottom=0;rounded=0;shadow=0;strokeWidth=1;" parent="WIyWlLk6GJQsqaUBKTNV-1" vertex="1"><mxGeometry x="113.52000000000001" y="450" width="220" height="150" as="geometry"><mxRectangle x="550" y="140" width="160" height="26" as="alternateBounds"/></mxGeometry></mxCell><mxCell id="zkfFHV4jXpPFQw0GAbJ--18" value="- components: ArrayList&lt;Product&gt;" style="text;align=left;verticalAlign=top;spacingLeft=4;spacingRight=4;overflow=hidden;rotatable=0;points=[[0,0.5],[1,0.5]];portConstraint=eastwest;" parent="zkfFHV4jXpPFQw0GAbJ--17" vertex="1"><mxGeometry y="26" width="220" height="26" as="geometry"/></mxCell><mxCell id="zkfFHV4jXpPFQw0GAbJ--23" value="" style="line;html=1;strokeWidth=1;align=left;verticalAlign=middle;spacingTop=-1;spacingLeft=3;spacingRight=3;rotatable=0;labelPosition=right;points=[];portConstraint=eastwest;" parent="zkfFHV4jXpPFQw0GAbJ--17" vertex="1"><mxGeometry y="52" width="220" height="8" as="geometry"/></mxCell><mxCell id="kcc6o6lSYXNfpmd2ZpEa-0" value="+ addComponent(Product)" style="text;align=left;verticalAlign=top;spacingLeft=4;spacingRight=4;overflow=hidden;rotatable=0;points=[[0,0.5],[1,0.5]];portConstraint=eastwest;" parent="zkfFHV4jXpPFQw0GAbJ--17" vertex="1"><mxGeometry y="60" width="220" height="26" as="geometry"/></mxCell><mxCell id="kcc6o6lSYXNfpmd2ZpEa-1" value="+ removeComponent()" style="text;align=left;verticalAlign=top;spacingLeft=4;spacingRight=4;overflow=hidden;rotatable=0;points=[[0,0.5],[1,0.5]];portConstraint=eastwest;" parent="zkfFHV4jXpPFQw0GAbJ--17" vertex="1"><mxGeometry y="86" width="220" height="26" as="geometry"/></mxCell><mxCell id="kcc6o6lSYXNfpmd2ZpEa-2" value="+ toString():String" style="text;align=left;verticalAlign=top;spacingLeft=4;spacingRight=4;overflow=hidden;rotatable=0;points=[[0,0.5],[1,0.5]];portConstraint=eastwest;" parent="zkfFHV4jXpPFQw0GAbJ--17" vertex="1"><mxGeometry y="112" width="220" height="26" as="geometry"/></mxCell><mxCell id="Kln29Syd0J0TAMKa7rjh-0" value="Product" style="swimlane;fontStyle=0;align=center;verticalAlign=top;childLayout=stackLayout;horizontal=1;startSize=26;horizontalStack=0;resizeParent=1;resizeLast=0;collapsible=1;marginBottom=0;rounded=0;shadow=0;strokeWidth=1;" parent="WIyWlLk6GJQsqaUBKTNV-1" vertex="1"><mxGeometry x="143.52" y="150" width="186.48" height="254" as="geometry"><mxRectangle x="550" y="140" width="160" height="26" as="alternateBounds"/></mxGeometry></mxCell><mxCell id="Kln29Syd0J0TAMKa7rjh-1" value="- name: String" style="text;align=left;verticalAlign=top;spacingLeft=4;spacingRight=4;overflow=hidden;rotatable=0;points=[[0,0.5],[1,0.5]];portConstraint=eastwest;" parent="Kln29Syd0J0TAMKa7rjh-0" vertex="1"><mxGeometry y="26" width="186.48" height="26" as="geometry"/></mxCell><mxCell id="Kln29Syd0J0TAMKa7rjh-2" value="- manufacturer: String" style="text;align=left;verticalAlign=top;spacingLeft=4;spacingRight=4;overflow=hidden;rotatable=0;points=[[0,0.5],[1,0.5]];portConstraint=eastwest;rounded=0;shadow=0;html=0;" parent="Kln29Syd0J0TAMKa7rjh-0" vertex="1"><mxGeometry y="52" width="186.48" height="26" as="geometry"/></mxCell><mxCell id="Kln29Syd0J0TAMKa7rjh-3" value="- productNumber: String" style="text;align=left;verticalAlign=top;spacingLeft=4;spacingRight=4;overflow=hidden;rotatable=0;points=[[0,0.5],[1,0.5]];portConstraint=eastwest;rounded=0;shadow=0;html=0;" parent="Kln29Syd0J0TAMKa7rjh-0" vertex="1"><mxGeometry y="78" width="186.48" height="26" as="geometry"/></mxCell><mxCell id="Kln29Syd0J0TAMKa7rjh-4" value="- category: String" style="text;align=left;verticalAlign=top;spacingLeft=4;spacingRight=4;overflow=hidden;rotatable=0;points=[[0,0.5],[1,0.5]];portConstraint=eastwest;rounded=0;shadow=0;html=0;" parent="Kln29Syd0J0TAMKa7rjh-0" vertex="1"><mxGeometry y="104" width="186.48" height="26" as="geometry"/></mxCell><mxCell id="Kln29Syd0J0TAMKa7rjh-5" value="- sellable: boolean" style="text;align=left;verticalAlign=top;spacingLeft=4;spacingRight=4;overflow=hidden;rotatable=0;points=[[0,0.5],[1,0.5]];portConstraint=eastwest;rounded=0;shadow=0;html=0;" parent="Kln29Syd0J0TAMKa7rjh-0" vertex="1"><mxGeometry y="130" width="186.48" height="26" as="geometry"/></mxCell><mxCell id="JOQZav9Eb4Q1mv_h8s1W-25" value="- description: String" style="text;align=left;verticalAlign=top;spacingLeft=4;spacingRight=4;overflow=hidden;rotatable=0;points=[[0,0.5],[1,0.5]];portConstraint=eastwest;rounded=0;shadow=0;html=0;" parent="Kln29Syd0J0TAMKa7rjh-0" vertex="1"><mxGeometry y="156" width="186.48" height="30" as="geometry"/></mxCell><mxCell id="vZ0PsjpHDB2BR3vRsgGG-11" value="- attributes: List&lt;AttributeValue&gt;" style="text;align=left;verticalAlign=top;spacingLeft=4;spacingRight=4;overflow=hidden;rotatable=0;points=[[0,0.5],[1,0.5]];portConstraint=eastwest;rounded=0;shadow=0;html=0;" parent="Kln29Syd0J0TAMKa7rjh-0" vertex="1"><mxGeometry y="186" width="186.48" height="30" as="geometry"/></mxCell><mxCell id="Kln29Syd0J0TAMKa7rjh-6" value="" style="line;html=1;strokeWidth=1;align=left;verticalAlign=middle;spacingTop=-1;spacingLeft=3;spacingRight=3;rotatable=0;labelPosition=right;points=[];portConstraint=eastwest;" parent="Kln29Syd0J0TAMKa7rjh-0" vertex="1"><mxGeometry y="216" width="186.48" height="8" as="geometry"/></mxCell><mxCell id="kcc6o6lSYXNfpmd2ZpEa-3" value="+ toString(): String" style="text;align=left;verticalAlign=top;spacingLeft=4;spacingRight=4;overflow=hidden;rotatable=0;points=[[0,0.5],[1,0.5]];portConstraint=eastwest;rounded=0;shadow=0;html=0;" parent="Kln29Syd0J0TAMKa7rjh-0" vertex="1"><mxGeometry y="224" width="186.48" height="30" as="geometry"/></mxCell><mxCell id="vZ0PsjpHDB2BR3vRsgGG-9" value="1..* components" style="endArrow=diamondThin;endFill=1;endSize=24;html=1;rounded=0;entryX=0;entryY=0.5;entryDx=0;entryDy=0;edgeStyle=orthogonalEdgeStyle;startArrow=classicThin;startFill=1;" parent="WIyWlLk6GJQsqaUBKTNV-1" target="zkfFHV4jXpPFQw0GAbJ--17" edge="1"><mxGeometry x="-0.8459" y="13" width="160" relative="1" as="geometry"><mxPoint x="140" y="173" as="sourcePoint"/><mxPoint x="453.52" y="250" as="targetPoint"/><mxPoint as="offset"/><Array as="points"><mxPoint x="30" y="173"/><mxPoint x="30" y="525"/></Array></mxGeometry></mxCell><mxCell id="kcc6o6lSYXNfpmd2ZpEa-5" value="" style="endArrow=block;endSize=16;endFill=0;html=1;rounded=0;strokeWidth=1;exitX=0.5;exitY=0;exitDx=0;exitDy=0;" parent="WIyWlLk6GJQsqaUBKTNV-1" source="zkfFHV4jXpPFQw0GAbJ--17" target="Kln29Syd0J0TAMKa7rjh-0" edge="1"><mxGeometry width="160" relative="1" as="geometry"><mxPoint x="250" y="420" as="sourcePoint"/><mxPoint x="390" y="360" as="targetPoint"/></mxGeometry></mxCell><mxCell id="JOQZav9Eb4Q1mv_h8s1W-9" value="Attribute" style="swimlane;fontStyle=0;align=center;verticalAlign=top;childLayout=stackLayout;horizontal=1;startSize=26;horizontalStack=0;resizeParent=1;resizeLast=0;collapsible=1;marginBottom=0;rounded=0;shadow=0;strokeWidth=1;" parent="WIyWlLk6GJQsqaUBKTNV-1" vertex="1"><mxGeometry x="650" y="70" width="160" height="120" as="geometry"><mxRectangle x="550" y="140" width="160" height="26" as="alternateBounds"/></mxGeometry></mxCell><mxCell id="JOQZav9Eb4Q1mv_h8s1W-10" value="- name: String" style="text;align=left;verticalAlign=top;spacingLeft=4;spacingRight=4;overflow=hidden;rotatable=0;points=[[0,0.5],[1,0.5]];portConstraint=eastwest;" parent="JOQZav9Eb4Q1mv_h8s1W-9" vertex="1"><mxGeometry y="26" width="160" height="26" as="geometry"/></mxCell><mxCell id="JOQZav9Eb4Q1mv_h8s1W-11" value="- unitOfMeasure: String" style="text;align=left;verticalAlign=top;spacingLeft=4;spacingRight=4;overflow=hidden;rotatable=0;points=[[0,0.5],[1,0.5]];portConstraint=eastwest;rounded=0;shadow=0;html=0;" parent="JOQZav9Eb4Q1mv_h8s1W-9" vertex="1"><mxGeometry y="52" width="160" height="26" as="geometry"/></mxCell><mxCell id="JOQZav9Eb4Q1mv_h8s1W-12" value="- type: AttributeType" style="text;align=left;verticalAlign=top;spacingLeft=4;spacingRight=4;overflow=hidden;rotatable=0;points=[[0,0.5],[1,0.5]];portConstraint=eastwest;rounded=0;shadow=0;html=0;" parent="JOQZav9Eb4Q1mv_h8s1W-9" vertex="1"><mxGeometry y="78" width="160" height="26" as="geometry"/></mxCell><mxCell id="JOQZav9Eb4Q1mv_h8s1W-16" value="" style="line;html=1;strokeWidth=1;align=left;verticalAlign=middle;spacingTop=-1;spacingLeft=3;spacingRight=3;rotatable=0;labelPosition=right;points=[];portConstraint=eastwest;" parent="JOQZav9Eb4Q1mv_h8s1W-9" vertex="1"><mxGeometry y="104" width="160" height="8" as="geometry"/></mxCell><mxCell id="JOQZav9Eb4Q1mv_h8s1W-18" value="AttributeValue&#10;&lt;&lt;abstract&gt;&gt;" style="swimlane;fontStyle=2;align=center;verticalAlign=top;childLayout=stackLayout;horizontal=1;startSize=40;horizontalStack=0;resizeParent=1;resizeLast=0;collapsible=1;marginBottom=0;rounded=0;shadow=0;strokeWidth=1;" parent="WIyWlLk6GJQsqaUBKTNV-1" vertex="1"><mxGeometry x="400" y="70" width="160" height="138" as="geometry"><mxRectangle x="550" y="140" width="160" height="26" as="alternateBounds"/></mxGeometry></mxCell><mxCell id="JOQZav9Eb4Q1mv_h8s1W-19" value="- name: String" style="text;align=left;verticalAlign=top;spacingLeft=4;spacingRight=4;overflow=hidden;rotatable=0;points=[[0,0.5],[1,0.5]];portConstraint=eastwest;" parent="JOQZav9Eb4Q1mv_h8s1W-18" vertex="1"><mxGeometry y="40" width="160" height="30" as="geometry"/></mxCell><mxCell id="0" value="- attribute: Attribute" style="text;align=left;verticalAlign=top;spacingLeft=4;spacingRight=4;overflow=hidden;rotatable=0;points=[[0,0.5],[1,0.5]];portConstraint=eastwest;" parent="JOQZav9Eb4Q1mv_h8s1W-18" vertex="1"><mxGeometry y="70" width="160" height="30" as="geometry"/></mxCell><mxCell id="JOQZav9Eb4Q1mv_h8s1W-22" value="" style="line;html=1;strokeWidth=1;align=left;verticalAlign=middle;spacingTop=-1;spacingLeft=3;spacingRight=3;rotatable=0;labelPosition=right;points=[];portConstraint=eastwest;" parent="JOQZav9Eb4Q1mv_h8s1W-18" vertex="1"><mxGeometry y="100" width="160" height="38" as="geometry"/></mxCell><mxCell id="JOQZav9Eb4Q1mv_h8s1W-23" value="1..1 attribute" style="endArrow=classic;html=1;rounded=0;entryX=0;entryY=0.5;entryDx=0;entryDy=0;exitX=1;exitY=0.5;exitDx=0;exitDy=0;" parent="WIyWlLk6GJQsqaUBKTNV-1" target="JOQZav9Eb4Q1mv_h8s1W-11" edge="1"><mxGeometry width="50" height="50" relative="1" as="geometry"><mxPoint x="560" y="135" as="sourcePoint"/><mxPoint x="440" y="370" as="targetPoint"/></mxGeometry></mxCell><mxCell id="JOQZav9Eb4Q1mv_h8s1W-24" value="0..*" style="endArrow=open;html=1;endSize=12;startArrow=diamondThin;startSize=14;startFill=0;edgeStyle=orthogonalEdgeStyle;align=left;verticalAlign=bottom;rounded=0;entryX=0.5;entryY=1;entryDx=0;entryDy=0;" parent="WIyWlLk6GJQsqaUBKTNV-1" source="vZ0PsjpHDB2BR3vRsgGG-11" target="JOQZav9Eb4Q1mv_h8s1W-18" edge="1"><mxGeometry x="-1" y="3" relative="1" as="geometry"><mxPoint x="420" y="340" as="sourcePoint"/><mxPoint x="490" y="400" as="targetPoint"/><Array as="points"><mxPoint x="370" y="351"/><mxPoint x="370" y="350"/><mxPoint x="480" y="350"/></Array></mxGeometry></mxCell><mxCell id="n3I-EyQz5qzDLCQ7JmEo-0" value="BooleanValue" style="swimlane;fontStyle=0;align=center;verticalAlign=top;childLayout=stackLayout;horizontal=1;startSize=26;horizontalStack=0;resizeParent=1;resizeLast=0;collapsible=1;marginBottom=0;rounded=0;shadow=0;strokeWidth=1;" parent="WIyWlLk6GJQsqaUBKTNV-1" vertex="1"><mxGeometry x="540" y="242" width="160" height="70" as="geometry"><mxRectangle x="550" y="140" width="160" height="26" as="alternateBounds"/></mxGeometry></mxCell><mxCell id="n3I-EyQz5qzDLCQ7JmEo-2" value="- value: Boolean" style="text;align=left;verticalAlign=top;spacingLeft=4;spacingRight=4;overflow=hidden;rotatable=0;points=[[0,0.5],[1,0.5]];portConstraint=eastwest;rounded=0;shadow=0;html=0;" parent="n3I-EyQz5qzDLCQ7JmEo-0" vertex="1"><mxGeometry y="26" width="160" height="26" as="geometry"/></mxCell><mxCell id="n3I-EyQz5qzDLCQ7JmEo-4" value="" style="line;html=1;strokeWidth=1;align=left;verticalAlign=middle;spacingTop=-1;spacingLeft=3;spacingRight=3;rotatable=0;labelPosition=right;points=[];portConstraint=eastwest;" parent="n3I-EyQz5qzDLCQ7JmEo-0" vertex="1"><mxGeometry y="52" width="160" height="8" as="geometry"/></mxCell><mxCell id="n3I-EyQz5qzDLCQ7JmEo-5" value="Extends" style="endArrow=block;endSize=16;endFill=0;html=1;rounded=0;" parent="WIyWlLk6GJQsqaUBKTNV-1" source="n3I-EyQz5qzDLCQ7JmEo-0" target="JOQZav9Eb4Q1mv_h8s1W-18" edge="1"><mxGeometry x="-0.4956" y="-15" width="160" relative="1" as="geometry"><mxPoint x="500" y="220" as="sourcePoint"/><mxPoint x="660" y="220" as="targetPoint"/><mxPoint as="offset"/></mxGeometry></mxCell><mxCell id="n3I-EyQz5qzDLCQ7JmEo-6" value="TextValue" style="swimlane;fontStyle=0;align=center;verticalAlign=top;childLayout=stackLayout;horizontal=1;startSize=26;horizontalStack=0;resizeParent=1;resizeLast=0;collapsible=1;marginBottom=0;rounded=0;shadow=0;strokeWidth=1;" parent="WIyWlLk6GJQsqaUBKTNV-1" vertex="1"><mxGeometry x="730" y="260" width="160" height="70" as="geometry"><mxRectangle x="550" y="140" width="160" height="26" as="alternateBounds"/></mxGeometry></mxCell><mxCell id="n3I-EyQz5qzDLCQ7JmEo-7" value="- value: String" style="text;align=left;verticalAlign=top;spacingLeft=4;spacingRight=4;overflow=hidden;rotatable=0;points=[[0,0.5],[1,0.5]];portConstraint=eastwest;rounded=0;shadow=0;html=0;" parent="n3I-EyQz5qzDLCQ7JmEo-6" vertex="1"><mxGeometry y="26" width="160" height="26" as="geometry"/></mxCell><mxCell id="n3I-EyQz5qzDLCQ7JmEo-8" value="" style="line;html=1;strokeWidth=1;align=left;verticalAlign=middle;spacingTop=-1;spacingLeft=3;spacingRight=3;rotatable=0;labelPosition=right;points=[];portConstraint=eastwest;" parent="n3I-EyQz5qzDLCQ7JmEo-6" vertex="1"><mxGeometry y="52" width="160" height="8" as="geometry"/></mxCell><mxCell id="n3I-EyQz5qzDLCQ7JmEo-9" value="Extends" style="endArrow=block;endSize=16;endFill=0;html=1;rounded=0;" parent="WIyWlLk6GJQsqaUBKTNV-1" source="n3I-EyQz5qzDLCQ7JmEo-6" target="JOQZav9Eb4Q1mv_h8s1W-18" edge="1"><mxGeometry x="-0.4956" y="-15" width="160" relative="1" as="geometry"><mxPoint x="593.7037037037037" y="240" as="sourcePoint"/><mxPoint x="552.2222222222222" y="200" as="targetPoint"/><mxPoint as="offset"/></mxGeometry></mxCell><mxCell id="n3I-EyQz5qzDLCQ7JmEo-10" value="DoubleValue" style="swimlane;fontStyle=0;align=center;verticalAlign=top;childLayout=stackLayout;horizontal=1;startSize=26;horizontalStack=0;resizeParent=1;resizeLast=0;collapsible=1;marginBottom=0;rounded=0;shadow=0;strokeWidth=1;" parent="WIyWlLk6GJQsqaUBKTNV-1" vertex="1"><mxGeometry x="500" y="420" width="160" height="70" as="geometry"><mxRectangle x="550" y="140" width="160" height="26" as="alternateBounds"/></mxGeometry></mxCell><mxCell id="n3I-EyQz5qzDLCQ7JmEo-11" value="- value: Double" style="text;align=left;verticalAlign=top;spacingLeft=4;spacingRight=4;overflow=hidden;rotatable=0;points=[[0,0.5],[1,0.5]];portConstraint=eastwest;rounded=0;shadow=0;html=0;" parent="n3I-EyQz5qzDLCQ7JmEo-10" vertex="1"><mxGeometry y="26" width="160" height="26" as="geometry"/></mxCell><mxCell id="n3I-EyQz5qzDLCQ7JmEo-12" value="" style="line;html=1;strokeWidth=1;align=left;verticalAlign=middle;spacingTop=-1;spacingLeft=3;spacingRight=3;rotatable=0;labelPosition=right;points=[];portConstraint=eastwest;" parent="n3I-EyQz5qzDLCQ7JmEo-10" vertex="1"><mxGeometry y="52" width="160" height="8" as="geometry"/></mxCell><mxCell id="n3I-EyQz5qzDLCQ7JmEo-13" value="Extends" style="endArrow=block;endSize=16;endFill=0;html=1;rounded=0;" parent="WIyWlLk6GJQsqaUBKTNV-1" source="n3I-EyQz5qzDLCQ7JmEo-10" target="JOQZav9Eb4Q1mv_h8s1W-18" edge="1"><mxGeometry x="-0.4956" y="-15" width="160" relative="1" as="geometry"><mxPoint x="720" y="240.1612903225806" as="sourcePoint"/><mxPoint x="570" y="174.8387096774194" as="targetPoint"/><mxPoint as="offset"/><Array as="points"><mxPoint x="510" y="330"/></Array></mxGeometry></mxCell><mxCell id="n3I-EyQz5qzDLCQ7JmEo-14" value="IntegerValue" style="swimlane;fontStyle=0;align=center;verticalAlign=top;childLayout=stackLayout;horizontal=1;startSize=26;horizontalStack=0;resizeParent=1;resizeLast=0;collapsible=1;marginBottom=0;rounded=0;shadow=0;strokeWidth=1;" parent="WIyWlLk6GJQsqaUBKTNV-1" vertex="1"><mxGeometry x="690" y="360" width="160" height="70" as="geometry"><mxRectangle x="550" y="140" width="160" height="26" as="alternateBounds"/></mxGeometry></mxCell><mxCell id="n3I-EyQz5qzDLCQ7JmEo-15" value="- value: Integer" style="text;align=left;verticalAlign=top;spacingLeft=4;spacingRight=4;overflow=hidden;rotatable=0;points=[[0,0.5],[1,0.5]];portConstraint=eastwest;rounded=0;shadow=0;html=0;" parent="n3I-EyQz5qzDLCQ7JmEo-14" vertex="1"><mxGeometry y="26" width="160" height="26" as="geometry"/></mxCell><mxCell id="n3I-EyQz5qzDLCQ7JmEo-16" value="" style="line;html=1;strokeWidth=1;align=left;verticalAlign=middle;spacingTop=-1;spacingLeft=3;spacingRight=3;rotatable=0;labelPosition=right;points=[];portConstraint=eastwest;" parent="n3I-EyQz5qzDLCQ7JmEo-14" vertex="1"><mxGeometry y="52" width="160" height="8" as="geometry"/></mxCell><mxCell id="n3I-EyQz5qzDLCQ7JmEo-17" value="Extends" style="endArrow=block;endSize=16;endFill=0;html=1;rounded=0;" parent="WIyWlLk6GJQsqaUBKTNV-1" source="n3I-EyQz5qzDLCQ7JmEo-14" target="JOQZav9Eb4Q1mv_h8s1W-18" edge="1"><mxGeometry x="-0.4956" y="-15" width="160" relative="1" as="geometry"><mxPoint x="576.7924528301887" y="370" as="sourcePoint"/><mxPoint x="512.6415094339623" y="200" as="targetPoint"/><mxPoint as="offset"/><Array as="points"><mxPoint x="510" y="330"/></Array></mxGeometry></mxCell><mxCell id="n3I-EyQz5qzDLCQ7JmEo-18" value="AttributeType&#10;&lt;&lt;Enum&gt;&gt;" style="swimlane;fontStyle=0;align=center;verticalAlign=top;childLayout=stackLayout;horizontal=1;startSize=45;horizontalStack=0;resizeParent=1;resizeLast=0;collapsible=1;marginBottom=0;rounded=0;shadow=0;strokeWidth=1;" parent="WIyWlLk6GJQsqaUBKTNV-1" vertex="1"><mxGeometry x="950" y="95" width="180" height="195" as="geometry"><mxRectangle x="550" y="140" width="160" height="26" as="alternateBounds"/></mxGeometry></mxCell><mxCell id="n3I-EyQz5qzDLCQ7JmEo-19" value="- valueType:AttributeValue" style="text;align=left;verticalAlign=top;spacingLeft=4;spacingRight=4;overflow=hidden;rotatable=0;points=[[0,0.5],[1,0.5]];portConstraint=eastwest;rounded=0;shadow=0;html=0;" parent="n3I-EyQz5qzDLCQ7JmEo-18" vertex="1"><mxGeometry y="45" width="180" height="26" as="geometry"/></mxCell><mxCell id="n3I-EyQz5qzDLCQ7JmEo-21" value="+ BOOLEAN(BooleanValue)" style="text;align=left;verticalAlign=top;spacingLeft=4;spacingRight=4;overflow=hidden;rotatable=0;points=[[0,0.5],[1,0.5]];portConstraint=eastwest;rounded=0;shadow=0;html=0;" parent="n3I-EyQz5qzDLCQ7JmEo-18" vertex="1"><mxGeometry y="71" width="180" height="26" as="geometry"/></mxCell><mxCell id="n3I-EyQz5qzDLCQ7JmEo-20" value="" style="line;html=1;strokeWidth=1;align=left;verticalAlign=middle;spacingTop=-1;spacingLeft=3;spacingRight=3;rotatable=0;labelPosition=right;points=[];portConstraint=eastwest;" parent="n3I-EyQz5qzDLCQ7JmEo-18" vertex="1"><mxGeometry y="97" width="180" height="8" as="geometry"/></mxCell></root></mxGraphModel></diagram></mxfile>